<?xml version="1.0" encoding="utf-8"?>
<!-- Generator: Adobe Illustrator 21.1.0, SVG Export Plug-In . SVG Version: 6.00 Build 0)  -->
<svg version="1.1" id="Layer_1" xmlns="http://www.w3.org/2000/svg" xmlns:xlink="http://www.w3.org/1999/xlink" x="0px" y="0px"
	 viewBox="0 0 128.6 128.6" enable-background="new 0 0 128.6 128.6" xml:space="preserve">
<path fill="#0099FF" d="M64.3,0C28.8,0,0,28.8,0,64.3s28.8,64.3,64.3,64.3s64.3-28.8,64.3-64.3S99.8,0,64.3,0z M83.4,37.5
	c0,0-7.5,0-10,0c-2.6,0-2.1,2.8-2.1,2.8v9.6h12.1v14.4H71v41.7H53.2V64.6h-8V49.4H53c0-0.8,0-3.6,0-12.1c0-15.5,15.7-14.7,15.7-14.7
	h14.7V37.5z"/>
</svg>
