<?xml version="1.0" encoding="utf-8"?>
<!-- Generator: Adobe Illustrator 21.1.0, SVG Export Plug-In . SVG Version: 6.00 Build 0)  -->
<svg version="1.1" id="Layer_1" xmlns="http://www.w3.org/2000/svg" xmlns:xlink="http://www.w3.org/1999/xlink" x="0px" y="0px"
	 viewBox="0 0 129 129" enable-background="new 0 0 129 129" xml:space="preserve">
<path fill="#0099FF" d="M64.5,0C28.9,0,0,28.9,0,64.5S28.9,129,64.5,129c35.6,0,64.5-28.9,64.5-64.5S100.1,0,64.5,0z M94.1,66.7
	c-3,10.1-11.8,16.6-11.8,16.6c-15.7,7.3-23.2-2.2-23.2-2.2c-5,25.5-12.6,26.3-12.6,26.3s-1.2-20.5,6.6-42.2c0,0-5.8-13.2,4.8-19.4
	c0,0,11.7-3.3,8.1,11.1c0,0-6.5,14.7-0.8,19.5c0,0,13.9,6.3,18.2-14.4c0,0,4.1-18.4-9.4-25.1c0,0-18.7-4.5-27.5,7.9
	c0,0-7.6,13.1-1.2,21c0,0,4,10.4-5.1,6.9c0,0-7.4-3.6-6.3-17.7c0,0-0.7-17.5,17.5-24.5c0,0,17.2-6.8,34.2,4
	C85.8,34.6,100.1,44.8,94.1,66.7z"/>
</svg>
