<?xml version="1.0" encoding="utf-8"?>
<!-- Generator: Adobe Illustrator 21.1.0, SVG Export Plug-In . SVG Version: 6.00 Build 0)  -->
<svg version="1.1" id="Layer_1" xmlns="http://www.w3.org/2000/svg" xmlns:xlink="http://www.w3.org/1999/xlink" x="0px" y="0px"
	 viewBox="0 0 128.6 128.6" enable-background="new 0 0 128.6 128.6" xml:space="preserve">
<path fill="#0099FF" d="M64.3,0C28.8,0,0,28.8,0,64.3s28.8,64.3,64.3,64.3c35.5,0,64.3-28.8,64.3-64.3S99.8,0,64.3,0z M95.5,54.3
	c0,0,0,41.6-41.3,45.1c0,0-18,0.8-25.5-6.9c0,0,16.8,0.4,21-6.1c0,0-11.3-1.6-12.9-10.9h5.9c0,0-11.3-3.6-11.3-15.2l6.1,1.8
	c0,0-10.5-8.7-4.4-20.2c0,0,15.5,16.8,31.1,15.6c0,0-2-18.6,14.4-18.6c0,0,6.7-0.4,12.7,5.1l9.1-3.8l-4.7,7.9l6.7-2L95.5,54.3z"/>
</svg>
